<?xml version="1.0" encoding="utf-8"?>
<svg xmlns="http://www.w3.org/2000/svg" width="808" height="168" viewBox="0 0 808 168"><path d="M66 0V700H311L432 90H450L571 700H816V0H688V603H670L550 0H332L212 603H194V0Z" transform="matrix(0.12,0,0,-0.12,20,132)" fill="#FEFEFE"/><path d="M18 0 202 700H432L616 0H480L442 154H192L154 0ZM223 276H411L326 617H308Z" transform="matrix(0.12,0,0,-0.12,125.83999999999999,132)" fill="#FEFEFE"/><path d="M66 0V700H370Q436 700 485.0 677.0Q534 654 561.0 612.0Q588 570 588 513V501Q588 438 558.0 399.0Q528 360 484 342V324Q524 322 546.0 296.5Q568 271 568 229V0H436V210Q436 234 423.5 249.0Q411 264 382 264H198V0ZM198 384H356Q403 384 429.5 409.5Q456 435 456 477V487Q456 529 430.0 554.5Q404 580 356 580H198Z" transform="matrix(0.12,0,0,-0.12,201.92,132)" fill="#FEFEFE"/><path d="M66 0V700H198V422H216L443 700H612L320 355L622 0H448L216 284H198V0Z" transform="matrix(0.12,0,0,-0.12,277.76,132)" fill="#FEFEFE"/><path d="M66 0V700H516V580H198V413H488V293H198V120H522V0Z" transform="matrix(0.12,0,0,-0.12,352.88,132)" fill="#FEFEFE"/><path d="M66 0V700H370Q436 700 485.0 677.0Q534 654 561.0 612.0Q588 570 588 513V501Q588 438 558.0 399.0Q528 360 484 342V324Q524 322 546.0 296.5Q568 271 568 229V0H436V210Q436 234 423.5 249.0Q411 264 382 264H198V0ZM198 384H356Q403 384 429.5 409.5Q456 435 456 477V487Q456 529 430.0 554.5Q404 580 356 580H198Z" transform="matrix(0.12,0,0,-0.12,419.36,132)" fill="#FEFEFE"/><path d="M18 0 202 700H432L616 0H480L442 154H192L154 0ZM223 276H411L326 617H308Z" transform="matrix(0.12,0,0,-0.12,495.20000000000005,132)" fill="#FEFEFE"/><path d="M66 0V700H317L456 90H474V700H604V0H353L214 610H196V0Z" transform="matrix(0.12,0,0,-0.12,571.2800000000001,132)" fill="#FEFEFE"/><path d="M228 0V580H24V700H564V580H360V0Z" transform="matrix(0.12,0,0,-0.12,651.6800000000001,132)" fill="#FEFEFE"/><path d="M66 0V700H516V580H198V413H488V293H198V120H522V0Z" transform="matrix(0.12,0,0,-0.12,722.24,132)" fill="#FEFEFE"/></svg>
