<?xml version="1.0" encoding="utf-8"?>
<svg xmlns="http://www.w3.org/2000/svg" width="1034" height="216" viewBox="0 0 1034 216">
  <svg x="28" y="43" width="130" height="130" viewBox="0 0 2048 2048" preserveAspectRatio="xMidYMid meet"><path d="M 452.344 145.503 H 1587.124 A 350 350 0 0 1 1937.124 495.503 V 1575.333 A 350 350 0 0 1 1587.124 1925.333 H 452.344 A 350 350 0 0 1 102.344 1575.333 V 495.503 A 350 350 0 0 1 452.344 145.503 Z" fill="#1C1716"/><path d="M 1379.59 409.478 C 1400.85 407.53 1404.96 422.123 1390.6 437.163 C 1364.57 464.427 1338.59 491.674 1312.43 518.815 L 1151.87 684.417 L 1099.16 739.322 C 1081.88 757.013 1045.27 783.384 1060.67 810.981 C 1063.81 816.518 1069.03 820.58 1075.16 822.275 C 1084.35 824.882 1099.3 821.721 1106.22 815.766 C 1129.78 795.48 1151.76 770.258 1173.94 748.573 L 1397.19 526.789 C 1411.07 512.973 1431.72 490.48 1447.18 477.42 C 1451.9 473.426 1464.52 476.978 1466.99 485.927 C 1468.14 490.137 1467.44 494.64 1465.05 498.295 C 1462.53 502.184 1444.59 519.585 1440.54 523.752 C 1416.91 548.396 1392.94 572.71 1368.63 596.684 L 1197.07 769.07 L 1163.29 803.061 C 1145.24 821.121 1101.53 855.602 1137.42 882.995 C 1146.17 889.767 1164.66 887.872 1173.16 881.562 C 1190.88 868.399 1206.94 848.768 1222.95 833.32 C 1287.43 770.791 1351.12 707.46 1414.02 643.343 L 1469.36 587.886 C 1482.1 574.98 1494.77 561.883 1507.7 549.241 C 1513.63 543.918 1520.56 537.018 1529 541.482 C 1536.02 545.194 1537.39 558.888 1532.63 564.375 C 1512.77 587.285 1490.39 608.633 1468.89 630.122 L 1274.21 825.133 L 1228.81 870.989 C 1219.48 880.323 1200.82 897.508 1194.63 907.595 C 1189.75 915.647 1188.34 925.328 1190.71 934.44 C 1195.96 954.791 1221 961.748 1234.19 951.432 C 1255.37 934.847 1280.84 906.155 1300 887.152 L 1402.02 786.837 C 1410.6 778.307 1419.17 769.662 1427.59 760.926 C 1476.11 710.591 1528.38 664.087 1579.29 616.245 C 1588.32 607.752 1602.98 607.155 1604.36 622.041 C 1605.33 632.484 1596.01 640.6 1590.12 647.943 C 1583.64 656.382 1577.27 665.304 1570.86 673.971 C 1535.07 721.483 1498.56 768.453 1461.36 814.865 C 1453.76 823.342 1441.89 840.08 1433.98 849.794 L 1335.59 970.848 C 1318.8 991.218 1303.36 1015.18 1281.7 1030.49 C 1223.83 1071.38 1155.27 1033.88 1091.11 1037.42 C 1018.62 1041.42 985.353 1086.09 940.573 1135.04 C 886.723 1191.71 835.763 1249.46 782.973 1306.42 C 623.603 1476.28 465.533 1647.35 308.783 1819.62 C 275.423 1795.62 244.273 1766.29 219.823 1733.15 C 213.813 1725.01 207.973 1716.79 201.903 1708.68 C 224.383 1685.28 253.933 1658.84 277.973 1636.39 L 405.643 1517.66 C 514.563 1415.66 624.283 1314.53 734.803 1214.28 C 780.393 1172.57 825.693 1130.56 870.723 1088.26 C 890.603 1069.67 921.353 1043.11 938.733 1024 C 950.313 1011.08 959.613 996.288 966.253 980.268 C 1004.46 888.493 929.253 826.189 978.413 741.506 C 990.193 721.225 1005.56 709.717 1023.04 695.017 L 1067.22 657.87 C 1126.74 608.121 1183.69 562.827 1244.05 514.471 L 1326.55 448.691 C 1337.98 439.611 1367.7 415.292 1379.59 409.478 Z" fill="#E5FC78"/><path d="M 818.546 331.307 C 820.216 343.474 823.816 399.704 826.026 405.892 C 833.496 473.039 838.926 540.02 915.856 558.678 C 951.976 567.436 989.186 567.583 1025.76 572.701 C 1015.35 574.857 1003.63 575.124 992.996 576.286 C 942.996 581.747 883.996 584.028 852.676 629.826 C 846.116 639.52 841.106 650.178 837.836 661.416 C 833.096 677.383 830.836 697.705 828.786 714.435 C 825.286 744.216 822.256 774.05 819.686 803.926 C 816.106 764.296 811.846 684.072 796.936 649.722 C 790.276 634.121 779.966 620.355 766.856 609.593 C 745.216 591.489 722.326 586.94 694.496 583.046 C 671.146 579.779 644.686 576.297 620.876 575.217 C 620.546 575.255 620.216 575.294 619.896 575.333 L 615.476 573.093 C 643.526 571.199 709.656 563.654 734.136 554.976 C 745.276 551.016 755.686 545.227 764.926 537.846 C 804.146 506.315 807.756 451.337 812.856 404.218 C 815.986 380.126 815.706 355.203 818.546 331.307 Z" fill="#FEFEFE"/><path d="M 1624.46 417.495 C 1625.84 427.531 1628.8 473.91 1630.62 479.014 C 1636.77 534.397 1641.24 589.644 1704.59 605.033 C 1734.33 612.257 1764.98 612.378 1795.09 616.6 C 1786.52 618.378 1776.87 618.598 1768.11 619.557 C 1726.94 624.061 1678.36 625.942 1652.57 663.717 C 1647.16 671.713 1643.04 680.504 1640.35 689.773 C 1636.44 702.943 1634.58 719.705 1632.89 733.504 C 1630.01 758.068 1627.52 782.675 1625.4 807.317 C 1622.45 774.63 1618.94 708.46 1606.67 680.128 C 1601.18 667.26 1592.69 655.905 1581.9 647.029 C 1564.08 632.096 1545.23 628.344 1522.31 625.132 C 1503.08 622.438 1481.29 619.566 1461.69 618.675 C 1461.42 618.706 1461.14 618.739 1460.88 618.771 L 1457.24 616.923 C 1480.34 615.361 1534.79 609.138 1554.95 601.98 C 1564.13 598.714 1572.7 593.939 1580.31 587.851 C 1612.6 561.844 1615.58 516.497 1619.77 477.633 C 1622.35 457.762 1622.12 437.205 1624.46 417.495 Z" fill="#FEFEFE"/><path d="M 1423.26 972.152 C 1424.1 978.512 1425.93 1007.93 1427.05 1011.16 C 1430.83 1046.28 1433.59 1081.31 1472.6 1091.07 C 1490.9 1095.66 1509.77 1095.73 1528.31 1098.41 C 1523.03 1099.54 1517.09 1099.68 1511.7 1100.28 C 1486.35 1103.14 1456.44 1104.33 1440.56 1128.29 C 1437.23 1133.36 1434.69 1138.93 1433.04 1144.81 C 1430.63 1153.17 1429.49 1163.79 1428.45 1172.54 C 1426.67 1188.12 1425.14 1203.73 1423.84 1219.35 C 1422.02 1198.62 1419.86 1156.67 1412.3 1138.7 C 1408.92 1130.54 1403.7 1123.34 1397.05 1117.71 C 1386.08 1108.23 1374.47 1105.86 1360.36 1103.83 C 1348.52 1102.11 1335.11 1100.29 1323.04 1099.73 C 1322.87 1099.75 1322.71 1099.77 1322.54 1099.79 L 1320.3 1098.61 C 1334.52 1097.62 1368.05 1093.68 1380.46 1089.14 C 1386.11 1087.07 1391.39 1084.04 1396.07 1080.18 C 1415.95 1063.68 1417.78 1034.93 1420.37 1010.29 C 1421.96 997.692 1421.82 984.652 1423.26 972.152 Z" fill="#FEFEFE"/><path d="M 400.219 289.411 C 364.921 304.339 334.916 324.744 308.171 351.462 C 281.427 378.199 261.044 408.202 246.114 443.499 C 231.165 478.868 223.129 515.482 223.379 556.2 L 223.379 1518.19 C 223.129 1558.94 231.165 1595.54 246.114 1630.89 C 261.044 1666.19 281.447 1696.19 308.171 1722.97 C 334.916 1749.7 364.921 1770.07 400.219 1784.98 C 435.568 1799.95 472.184 1807.98 512.914 1807.73 L 1523.87 1807.73 C 1564.6 1807.98 1601.2 1799.95 1636.56 1784.98 C 1671.87 1770.07 1701.85 1749.7 1728.6 1722.97 C 1755.35 1696.19 1775.72 1666.19 1790.66 1630.89 C 1805.62 1595.54 1813.64 1558.94 1813.41 1518.19 L 1813.41 556.2 C 1813.64 515.482 1805.62 478.868 1790.66 443.499 C 1775.72 408.202 1755.35 378.199 1728.6 351.462 C 1701.85 324.744 1671.87 304.339 1636.56 289.411 C 1601.2 274.465 1564.6 266.425 1523.87 266.666 L 512.914 266.666 C 472.184 266.425 435.568 274.465 400.219 289.411 Z M 452.344 120.503 L 1587.124 120.503 C 1638.05 120.777 1689.045 131.349 1733.099 149.983 C 1777.223 168.646 1818.965 197.013 1852.289 230.338 C 1885.614 263.663 1913.981 305.404 1932.644 349.528 C 1951.277 393.582 1961.85 444.577 1962.124 495.503 L 1962.124 1575.333 C 1961.85 1626.259 1951.278 1677.254 1932.644 1721.308 C 1913.981 1765.432 1885.614 1807.174 1852.289 1840.498 C 1818.964 1873.823 1777.223 1902.19 1733.099 1920.853 C 1689.045 1939.486 1638.05 1950.059 1587.124 1950.333 L 452.344 1950.333 C 401.418 1950.059 350.423 1939.487 306.369 1920.853 C 262.245 1902.19 220.503 1873.823 187.179 1840.498 C 153.854 1807.173 125.487 1765.432 106.824 1721.308 C 88.191 1677.254 77.618 1626.259 77.344 1575.333 L 77.344 495.503 C 77.618 444.577 88.19 393.582 106.824 349.528 C 125.487 305.404 153.854 263.662 187.179 230.338 C 220.504 197.013 262.245 168.646 306.369 149.983 C 350.423 131.35 401.418 120.777 452.344 120.503 Z" fill="#FAFFF2"/></svg>
  <svg x="198" y="24" width="808" height="168" viewBox="0 0 808 168"><path d="M66 0V700H311L432 90H450L571 700H816V0H688V603H670L550 0H332L212 603H194V0Z" transform="matrix(0.12,0,0,-0.12,20,132)" fill="#FEFEFE"/><path d="M18 0 202 700H432L616 0H480L442 154H192L154 0ZM223 276H411L326 617H308Z" transform="matrix(0.12,0,0,-0.12,125.83999999999999,132)" fill="#FEFEFE"/><path d="M66 0V700H370Q436 700 485.0 677.0Q534 654 561.0 612.0Q588 570 588 513V501Q588 438 558.0 399.0Q528 360 484 342V324Q524 322 546.0 296.5Q568 271 568 229V0H436V210Q436 234 423.5 249.0Q411 264 382 264H198V0ZM198 384H356Q403 384 429.5 409.5Q456 435 456 477V487Q456 529 430.0 554.5Q404 580 356 580H198Z" transform="matrix(0.12,0,0,-0.12,201.92,132)" fill="#FEFEFE"/><path d="M66 0V700H198V422H216L443 700H612L320 355L622 0H448L216 284H198V0Z" transform="matrix(0.12,0,0,-0.12,277.76,132)" fill="#FEFEFE"/><path d="M66 0V700H516V580H198V413H488V293H198V120H522V0Z" transform="matrix(0.12,0,0,-0.12,352.88,132)" fill="#FEFEFE"/><path d="M66 0V700H370Q436 700 485.0 677.0Q534 654 561.0 612.0Q588 570 588 513V501Q588 438 558.0 399.0Q528 360 484 342V324Q524 322 546.0 296.5Q568 271 568 229V0H436V210Q436 234 423.5 249.0Q411 264 382 264H198V0ZM198 384H356Q403 384 429.5 409.5Q456 435 456 477V487Q456 529 430.0 554.5Q404 580 356 580H198Z" transform="matrix(0.12,0,0,-0.12,419.36,132)" fill="#FEFEFE"/><path d="M18 0 202 700H432L616 0H480L442 154H192L154 0ZM223 276H411L326 617H308Z" transform="matrix(0.12,0,0,-0.12,495.20000000000005,132)" fill="#FEFEFE"/><path d="M66 0V700H317L456 90H474V700H604V0H353L214 610H196V0Z" transform="matrix(0.12,0,0,-0.12,571.2800000000001,132)" fill="#FEFEFE"/><path d="M228 0V580H24V700H564V580H360V0Z" transform="matrix(0.12,0,0,-0.12,651.6800000000001,132)" fill="#FEFEFE"/><path d="M66 0V700H516V580H198V413H488V293H198V120H522V0Z" transform="matrix(0.12,0,0,-0.12,722.24,132)" fill="#FEFEFE"/></svg>
</svg>
